<svg width="213" height="45" viewBox="0 0 213 45" fill="none" xmlns="http://www.w3.org/2000/svg">
<path d="M33.2496 12.081C32.2874 16.5958 29.4379 20.5555 24.7011 23.9601C26.7364 24.7002 27.7541 26.014 27.7541 27.9013C27.7541 29.2336 27.2545 30.7878 26.2553 32.5641C24.257 36.0798 21.2225 38.7627 17.1517 40.6131C13.6361 42.2044 9.82443 42.9815 5.71669 42.9445L5.10609 43.7216L4.43997 43.1665C4.18092 43.3516 3.77385 43.6476 3.21875 44.0547L3.32977 42.778C2.29359 42.7039 1.20189 42.5189 0.0546876 42.2229L0.498767 41.2792C1.05387 41.2422 1.94202 40.8906 3.16324 40.2245L2.60814 39.7249L3.94038 39.2808L3.10773 39.0588L2.33059 39.1698L2.16406 39.1143L1.94202 39.1698L1.71998 39.0033L1.49794 38.5037L3.55181 37.6155L3.10773 35.7282L3.99589 35.8392C4.77303 28.956 5.62418 22.8869 6.54934 17.632C5.06908 18.5201 3.64433 19.4268 2.27508 20.352C2.27508 19.8339 2.25658 19.0752 2.21957 18.0761L3.38528 18.1316L5.93873 16.1332L4.21793 16.3553L2.83018 17.1324L2.3861 17.1879L2.21957 17.4099L2.16406 16.2998C2.23808 16.2998 2.33059 16.2442 2.44161 16.1332C2.44161 16.0962 2.3491 16.0037 2.16406 15.8557C2.01604 15.7076 1.94202 15.5781 1.94202 15.4671L2.21957 15.3006C2.18257 15.2636 2.16406 15.2266 2.16406 15.1896C2.20107 15.0785 2.55263 14.8565 3.21875 14.5234C3.88487 14.1904 4.23643 13.9683 4.27344 13.8573C4.27344 13.7833 4.25493 13.6908 4.21793 13.5798C4.18092 13.4317 3.95888 13.3392 3.55181 13.3022C3.14474 13.2652 2.9227 13.1542 2.88569 12.9692L3.10773 12.8026C2.55263 12.9507 2.14556 13.0247 1.88651 13.0247C1.59046 13.0247 1.55345 12.9507 1.77549 12.8026C1.73849 12.8396 1.66447 12.8951 1.55345 12.9692C1.36842 12.9692 1.44243 12.7656 1.77549 12.3586C2.14556 11.9515 2.3491 11.7294 2.3861 11.6924C2.3491 11.6554 2.27508 11.6369 2.16406 11.6369L2.33059 10.7488C2.44161 10.7118 2.88569 10.4342 3.66283 9.91612C10.8421 5.36431 17.5958 3.0884 23.9239 3.0884C26.6624 3.0884 28.8828 3.625 30.5851 4.69819C32.5095 5.91941 33.4716 7.69572 33.4716 10.0271C33.4716 10.6933 33.3976 11.3779 33.2496 12.081ZM23.4799 14.5789C23.4799 13.0987 22.5177 12.3586 20.5933 12.3586C19.7422 12.3586 18.706 12.5066 17.4848 12.8026C16.7447 15.134 15.727 18.6312 14.4317 23.294C20.4638 19.9634 23.4799 17.0584 23.4799 14.5789ZM8.88076 10.5267L7.15995 10.7488L5.7722 11.5259H5.27262L4.55099 12.4141L6.27179 12.5251L8.88076 10.5267ZM8.65872 14.0794L7.71505 14.1904L7.04893 14.5789L6.71587 14.6345L6.38281 15.0785L7.27097 15.134L8.65872 14.0794ZM18.928 31.8425C19.1131 31.0284 18.41 30.6213 16.8187 30.6213C15.7085 30.6213 14.2837 30.8433 12.5444 31.2874C12.3224 32.3606 11.8968 33.9519 11.2677 36.0613C12.6369 35.8392 14.0802 35.3766 15.5975 34.6735C17.5958 33.7854 18.706 32.8417 18.928 31.8425ZM49.6628 7.08511C46.5912 16.3368 44.1673 25.1443 42.391 33.5078C42.2429 34.1739 42.0024 35.1546 41.6693 36.4498C41.4843 36.8569 41.2438 37.486 40.9477 38.3372C40.7997 39.4104 40.5961 41.0016 40.3371 43.111C39.967 43.259 39.4119 43.4811 38.6718 43.7771C38.4128 43.4071 38.0612 42.815 37.6171 42.0008L37.6726 40.9461L38.0057 40.4465L37.6171 39.3919L36.2849 41.2792L36.4514 43.1665C36.1183 43.4996 35.6928 44.0177 35.1747 44.7208L34.5641 44.0547C34.157 44.2767 33.7499 44.5543 33.3428 44.8873C34.7861 30.4178 36.5624 18.1501 38.6718 8.08429C39.819 7.67722 41.5398 7.0296 43.8342 6.14144C43.8712 6.4745 43.9637 6.93709 44.1118 7.52919L43.5567 8.25082L43.8342 11.1373L44.6669 9.47204L44.8334 7.97327L45.1109 7.52919L44.9999 7.08511L46.0546 6.03042C46.9428 5.77138 47.7939 5.47533 48.6081 5.14227C48.5711 5.25329 48.5526 5.36431 48.5526 5.47533C48.5526 5.62335 48.6821 5.77138 48.9411 5.91941C49.2002 6.03042 49.2927 6.23396 49.2187 6.53001C49.2557 6.60403 49.3112 6.67804 49.3852 6.75205C49.3482 7.0111 49.3667 7.14062 49.4407 7.14062L49.6628 7.08511ZM41.8359 10.6377L41.5583 9.97163L40.7257 11.1373L40.9477 13.0802L41.5583 11.9145L41.6138 10.9153L41.8359 10.6377ZM42.3354 15.1896L42.2244 14.801L41.7248 15.4671L41.8359 16.6328L42.2244 15.9667L42.2799 15.3561L42.3354 15.1896ZM39.782 36.4498L39.5044 35.8392L38.7273 36.9494L38.8938 38.8923L39.5044 37.7821L39.56 36.7829L39.782 36.4498ZM80.5085 12.192C79.1392 18.5942 73.9583 24.3857 64.9657 29.5666C69.0734 32.7492 72.9406 35.3026 76.5673 37.227C76.2342 38.1151 75.9937 38.9478 75.8456 39.7249L75.0685 39.3363L74.902 40.2245L74.5134 39.6139L71.5714 39.2253L72.6816 40.391L73.9583 40.8351L74.2914 41.1682H74.6799L74.4579 42.5559C74.3099 42.5189 74.1804 42.5004 74.0693 42.5004C73.9583 42.5004 73.7363 42.5559 73.4032 42.6669C73.2182 42.741 72.9776 42.7225 72.6816 42.6114L73.7918 44.8318C71.1643 43.6846 68.5183 42.5189 65.8539 41.3347C62.7453 39.9655 60.1919 38.6887 58.1935 37.5045C57.9345 38.6517 57.7309 40.058 57.5829 41.7233C57.2128 41.9083 56.6577 42.1674 55.9176 42.5004L55.8621 42.4449L56.4727 41.4457L55.8621 38.8368L55.196 40.4465L55.2515 41.5012L54.6964 40.8351C54.6594 40.8721 53.8637 41.8343 52.3095 43.7216L51.6989 43.1665C51.2178 43.4996 50.7922 43.7956 50.4221 44.0547C51.5323 32.2126 52.7165 23.0164 53.9748 16.4663L52.9201 17.0214L53.3086 16.6883L51.5323 16.4663L49.7005 17.7985C49.5525 17.1694 49.46 16.6698 49.4229 16.2998C49.46 16.2998 50.1261 15.9667 51.4213 15.3006L50.6442 14.6345L51.4213 14.2459H51.8654L52.698 13.4132L50.9772 13.1912L50.2001 13.7463L50.1446 12.9692C50.6627 12.303 51.0512 11.7479 51.3103 11.3039L49.3674 11.6369L49.534 10.7488C49.756 10.6377 50.2371 10.3602 50.9772 9.91612C58.1935 5.36431 64.9287 3.0884 71.1828 3.0884C73.9583 3.0884 76.1787 3.625 77.844 4.69819C79.7683 5.95641 80.7305 7.75123 80.7305 10.0826C80.7305 10.7488 80.6565 11.4519 80.5085 12.192ZM52.1429 17.521C51.1808 18.1131 50.4591 18.5942 49.978 18.9642C49.941 18.7052 49.904 18.4831 49.867 18.2981L50.5887 18.2426L52.0319 17.521H52.1429ZM70.3502 15.6891C70.3502 13.7278 68.8884 12.7471 65.9649 12.7471C65.5948 12.7471 65.2063 12.7656 64.7992 12.8026C63.2079 17.4655 62.1162 21.1661 61.5241 23.9046C67.4081 20.9071 70.3502 18.1686 70.3502 15.6891ZM56.4172 10.7488L55.1405 10.5822L53.2531 11.9145L54.4743 11.859L55.4735 11.3594H55.8621L56.4172 10.7488ZM71.5159 37.8931L70.9053 36.9494L69.0179 36.6719L69.6841 37.449L70.5722 37.7266L70.7387 38.0041L71.5159 37.8931ZM54.8074 37.6711L54.3633 35.7837L53.8637 36.9494L53.9192 37.8931L53.7527 38.2262L54.0858 38.8368L54.8074 37.6711ZM110.91 16.1332C110.207 19.3898 108.579 22.8314 106.025 26.4581C102.547 31.2689 98.2354 35.3211 93.0915 38.6147C87.8365 41.9823 82.4891 44.0362 77.0491 44.7763L77.8262 42.778L77.8818 42.7225L79.547 42.778L82.267 40.4465L80.3797 40.7796L79.8801 41.0572C79.8061 40.5021 79.7691 39.2438 79.7691 37.2825L81.7119 36.8939C82.267 30.7508 83.0997 24.4597 84.2099 18.0206C82.7296 18.7237 81.2494 19.5378 79.7691 20.463C80.3612 18.1316 81.1568 16.1147 82.156 14.4124L81.2679 13.0247H81.9895L84.3209 11.0263L82.7111 11.3039L81.2679 12.1365L82.045 9.74959L81.1568 8.86143C87.485 5.53084 93.517 3.86554 99.2531 3.86554C102.917 3.86554 105.785 4.60567 107.857 6.08593C110.151 7.64021 111.299 9.95312 111.299 13.0247C111.299 13.9868 111.169 15.023 110.91 16.1332ZM87.5405 11.2484L86.3193 11.4704L85.2646 12.081L84.9315 12.1365L84.4319 12.7471L85.7642 12.8026L87.5405 11.2484ZM100.197 20.685C100.308 20.1299 100.363 19.6303 100.363 19.1863C100.363 16.3738 98.4389 14.986 94.5902 15.023C92.6659 21.2031 91.0561 27.3462 89.7609 33.4523C92.2403 31.898 94.4052 30.0477 96.2555 27.9013C98.4019 25.4589 99.7156 23.0535 100.197 20.685ZM87.596 38.6147L86.8188 38.7257C86.4488 38.9848 86.1897 39.1143 86.0417 39.1143L85.7086 39.5029H86.4858L87.596 38.6147ZM84.9315 38.2817L83.8768 38.4482L83.1552 38.9478H82.8776L82.3781 39.5029H83.4327L84.9315 38.2817ZM146.567 7.08511C143.496 16.3368 141.072 25.1443 139.296 33.5078C139.148 34.1739 138.907 35.1546 138.574 36.4498C138.389 36.8569 138.148 37.486 137.852 38.3372C137.704 39.4104 137.501 41.0016 137.242 43.111C136.872 43.259 136.317 43.4811 135.576 43.7771C135.317 43.4071 134.966 42.815 134.522 42.0008L134.577 40.9461L134.91 40.4465L134.522 39.3919L133.19 41.2792L133.356 43.1665C133.023 43.4996 132.597 44.0177 132.079 44.7208L131.469 44.0547C131.062 44.2767 130.655 44.5543 130.248 44.8873C131.691 30.4178 133.467 18.1501 135.576 8.08429C136.724 7.67722 138.445 7.0296 140.739 6.14144C140.776 6.4745 140.868 6.93709 141.016 7.52919L140.461 8.25082L140.739 11.1373L141.572 9.47204L141.738 7.97327L142.016 7.52919L141.905 7.08511L142.959 6.03042C143.847 5.77138 144.699 5.47533 145.513 5.14227C145.476 5.25329 145.457 5.36431 145.457 5.47533C145.457 5.62335 145.587 5.77138 145.846 5.91941C146.105 6.03042 146.197 6.23396 146.123 6.53001C146.16 6.60403 146.216 6.67804 146.29 6.75205C146.253 7.0111 146.271 7.14062 146.345 7.14062L146.567 7.08511ZM138.741 10.6377L138.463 9.97163L137.63 11.1373L137.852 13.0802L138.463 11.9145L138.519 10.9153L138.741 10.6377ZM139.24 15.1896L139.129 14.801L138.63 15.4671L138.741 16.6328L139.129 15.9667L139.185 15.3561L139.24 15.1896ZM136.687 36.4498L136.409 35.8392L135.632 36.9494L135.799 38.8923L136.409 37.7821L136.465 36.7829L136.687 36.4498ZM178.634 5.80839C175.822 16.9104 174.175 27.1242 173.694 36.4498C172.769 37.116 172.066 37.597 171.585 37.8931C171.289 37.0789 171.067 36.3203 170.919 35.6172C170.622 35.9873 170.141 36.5609 169.475 37.338C169.512 37.8191 169.568 38.5222 169.642 39.4474H168.088C168.051 39.4844 167.81 40.1505 167.366 41.4457C162.814 36.2278 159.483 31.7315 157.374 27.9568C157.226 28.5119 156.893 29.9552 156.375 32.2866C156.227 33.1748 155.912 34.47 155.431 36.1723C155.283 36.5053 155.098 37.0419 154.876 37.7821C154.691 38.7072 154.451 40.2985 154.155 42.5559C153.451 42.852 152.915 43.037 152.545 43.111L152.212 42.7225L152.767 41.6123L152.933 40.2245L153.155 39.8359L152.878 38.9478L151.712 40.5021L151.879 42.2229L151.324 41.3902C150.805 41.9823 150.047 42.8705 149.048 44.0547L148.382 43.4441L147.16 44.2212C148.493 30.3067 150.158 18.6312 152.156 9.19449C152.341 9.12047 152.878 9.08347 153.766 9.08347C154.321 9.08347 154.932 8.84292 155.598 8.36184C156.486 7.73273 157.06 7.36266 157.319 7.25164C157.245 7.99177 157.245 9.04646 157.319 10.4157C157.652 10.0826 158.022 9.54605 158.429 8.80592C158.836 8.02878 159.187 7.47368 159.483 7.14062C160.113 6.95559 160.964 6.67804 162.037 6.30797C162 6.56702 162.055 6.78906 162.203 6.97409C162.388 7.15913 162.444 7.38116 162.37 7.64021H162.537L162.703 7.41817C162.703 7.64021 162.722 7.82524 162.759 7.97327C162.833 8.1213 162.944 8.17681 163.092 8.1398L162.925 8.75041C164.109 15.5966 165.534 20.9071 167.199 24.6817C167.051 21.7952 167.643 16.1887 168.976 7.86225C169.383 7.64021 170.012 7.28865 170.863 6.80756C170.974 6.14144 171.159 5.47533 171.418 4.80921C172.158 4.58717 173.231 4.34663 174.638 4.08758L173.861 5.14227L174.138 7.91776L174.971 6.30797L175.137 4.86472L175.415 4.42064L175.193 3.92105C175.896 3.81003 176.766 3.625 177.802 3.36595C177.506 4.69819 177.302 5.71587 177.191 6.41899C177.561 6.27097 178.042 6.06743 178.634 5.80839ZM172.528 9.58306L172.251 8.97245L171.474 10.0271L171.696 11.97L172.251 10.8598L172.362 9.86061L172.528 9.58306ZM152.878 34.1184L152.656 33.5078L151.823 34.618L152.045 36.5053L152.6 35.3951L152.711 34.4515L152.878 34.1184ZM150.491 39.3363L150.213 38.7257L149.381 39.8359L149.603 41.7233L150.213 40.6131L150.324 39.6694L150.491 39.3363ZM212.755 2.5333C209.832 11.3409 207.463 20.0004 205.65 28.5119C205.502 29.141 205.243 29.9552 204.873 30.9544C204.54 31.9165 204.336 32.6197 204.262 33.0637C204.225 33.2118 204.022 34.729 203.652 37.6155C202.948 37.9116 202.412 38.1151 202.042 38.2262C201.561 37.412 201.172 36.8014 200.876 36.3943C199.914 37.4675 199.137 38.3742 198.545 39.1143L197.879 38.5592L196.657 39.3363C196.694 39.1143 196.824 37.8376 197.046 35.5062C193.715 37.1715 190.329 39.1883 186.888 41.5567L186.832 41.7788C185.944 42.2229 185.148 42.6854 184.445 43.1665L184.612 42.8335L184.778 41.3902L185 40.9461L184.612 40.1135L183.446 41.6678L183.724 43.6661C183.057 44.0732 182.539 44.4248 182.169 44.7208C182.206 44.3877 182.299 43.8326 182.447 43.0555C182.151 43.2035 181.707 43.4811 181.115 43.8882C181.115 43.7771 181.281 42.3154 181.614 39.5029C181.096 40.5391 180.3 42.0748 179.227 44.1102L178.894 44.0547C180.448 34.692 181.466 28.734 181.947 26.1805C183.205 19.4823 184.519 13.5983 185.888 8.52837C186.11 8.45436 186.333 8.41735 186.555 8.41735C186.74 8.41735 186.98 8.47286 187.276 8.58388C187.572 8.6949 187.813 8.75041 187.998 8.75041C188.516 8.75041 189.201 8.43585 190.052 7.80674L190.329 10.4712L191.217 8.91694L191.273 7.52919L191.606 7.08511L191.439 6.75205C191.772 6.67804 192.05 6.64103 192.272 6.64103C192.494 6.64103 192.735 6.73355 192.994 6.91858C193.29 7.06661 193.549 7.14062 193.771 7.14062C194.252 7.14062 194.9 6.80756 195.714 6.14144C196.639 5.3273 197.305 4.84621 197.712 4.69819C196.232 9.10197 194.752 13.5243 193.271 17.965C191.569 23.109 190.255 27.5312 189.33 31.2319C191.291 30.1217 194.215 28.4379 198.101 26.1805C198.952 18.8902 200.191 11.3224 201.82 3.47697C203.189 2.99589 204.91 2.36677 206.982 1.58963C207.056 2.18174 207.167 2.73684 207.315 3.25493C207.722 2.84786 208.333 2.25575 209.147 1.47862L209.758 1.25658L208.981 2.25575L209.314 4.97574L210.146 3.42146L210.257 2.03371L210.535 1.58963L210.368 1.09005C210.664 1.01603 211.127 0.868007 211.756 0.645967C211.571 1.20107 211.386 1.9412 211.201 2.86636C211.756 2.79235 212.274 2.68133 212.755 2.5333ZM205.816 5.3088L205.65 4.80921L204.928 5.69737L205.095 7.30715L205.539 6.41899L205.65 5.58635L205.816 5.3088ZM206.871 8.02878L206.649 7.52919L205.983 8.41735L206.15 10.0271L206.649 9.08347L206.705 8.25082L206.871 8.02878ZM183.946 38.1706L183.779 37.6711L183.057 38.6147L183.224 40.169L183.724 39.2808C183.761 38.8368 183.835 38.4667 183.946 38.1706Z" fill="white"/>
</svg>
