<svg width="279" height="221" viewBox="0 0 279 221" fill="none" xmlns="http://www.w3.org/2000/svg">
<path d="M83.5605 22.7598C81.1569 34.0384 74.0384 43.9303 62.2051 52.4355C67.2897 54.2845 69.832 57.5664 69.832 62.2812C69.832 65.6094 68.584 69.4922 66.0879 73.9297C61.0957 82.7122 53.515 89.4147 43.3457 94.0371C34.5632 98.0124 25.041 99.9538 14.7793 99.8613L13.2539 101.803L11.5898 100.416C10.9427 100.878 9.92578 101.618 8.53906 102.635L8.81641 99.4453C6.22786 99.2604 3.50065 98.7982 0.634766 98.0586L1.74414 95.7012C3.13086 95.6087 5.34961 94.7305 8.40039 93.0664L7.01367 91.8184L10.3418 90.709L8.26172 90.1543L6.32031 90.4316L5.9043 90.293L5.34961 90.4316L4.79492 90.0156L4.24023 88.7676L9.37109 86.5488L8.26172 81.834L10.4805 82.1113C12.4219 64.916 14.5482 49.7546 16.8594 36.627C13.1615 38.8457 9.60221 41.1107 6.18164 43.4219C6.18164 42.1276 6.13542 40.2324 6.04297 37.7363L8.95508 37.875L15.334 32.8828L11.0352 33.4375L7.56836 35.3789L6.45898 35.5176L6.04297 36.0723L5.9043 33.2988C6.08919 33.2988 6.32031 33.1602 6.59766 32.8828C6.59766 32.7904 6.36654 32.5592 5.9043 32.1895C5.53451 31.8197 5.34961 31.4961 5.34961 31.2188L6.04297 30.8027C5.95052 30.7103 5.9043 30.6178 5.9043 30.5254C5.99674 30.248 6.875 29.6934 8.53906 28.8613C10.2031 28.0293 11.0814 27.4746 11.1738 27.1973C11.1738 27.0124 11.1276 26.7812 11.0352 26.5039C10.9427 26.1341 10.388 25.903 9.37109 25.8105C8.35417 25.7181 7.79948 25.4408 7.70703 24.9785L8.26172 24.5625C6.875 24.9323 5.85807 25.1172 5.21094 25.1172C4.47135 25.1172 4.37891 24.9323 4.93359 24.5625C4.84115 24.6549 4.65625 24.7936 4.37891 24.9785C3.91667 24.9785 4.10156 24.4701 4.93359 23.4531C5.85807 22.4362 6.36654 21.8815 6.45898 21.7891C6.36654 21.6966 6.18164 21.6504 5.9043 21.6504L6.32031 19.4316C6.59766 19.3392 7.70703 18.6458 9.64844 17.3516C27.5833 5.98047 44.4551 0.294922 60.2637 0.294922C67.1048 0.294922 72.6517 1.63542 76.9043 4.31641C81.7116 7.36719 84.1152 11.8047 84.1152 17.6289C84.1152 19.293 83.9303 21.0033 83.5605 22.7598ZM59.1543 29C59.1543 25.3021 56.7507 23.4531 51.9434 23.4531C49.8171 23.4531 47.2285 23.8229 44.1777 24.5625C42.3288 30.3867 39.7865 39.123 36.5508 50.7715C51.6198 42.4512 59.1543 35.194 59.1543 29ZM22.6836 18.877L18.3848 19.4316L14.918 21.373H13.6699L11.8672 23.5918L16.166 23.8691L22.6836 18.877ZM22.1289 27.752L19.7715 28.0293L18.1074 29L17.2754 29.1387L16.4434 30.248L18.6621 30.3867L22.1289 27.752ZM47.7832 72.127C48.2454 70.0931 46.4889 69.0762 42.5137 69.0762C39.7402 69.0762 36.181 69.6309 31.8359 70.7402C31.2812 73.4212 30.2181 77.3965 28.6465 82.666C32.0671 82.1113 35.6725 80.9557 39.4629 79.1992C44.4551 76.9805 47.2285 74.623 47.7832 72.127ZM124.563 10.2793C116.89 33.3913 110.835 55.3939 106.397 76.2871C106.027 77.9512 105.426 80.401 104.594 83.6367C104.132 84.6536 103.531 86.2253 102.792 88.3516C102.422 91.0326 101.913 95.0078 101.266 100.277C100.342 100.647 98.955 101.202 97.106 101.941C96.4589 101.017 95.5806 99.5378 94.4713 97.5039L94.6099 94.8691L95.442 93.6211L94.4713 90.9863L91.1431 95.7012L91.5591 100.416C90.7271 101.248 89.664 102.542 88.3697 104.299L86.8443 102.635C85.8274 103.189 84.8104 103.883 83.7935 104.715C87.399 68.5677 91.8365 37.9212 97.106 12.7754C99.9719 11.7585 104.271 10.1406 110.003 7.92188C110.095 8.75391 110.326 9.90951 110.696 11.3887L109.309 13.1914L110.003 20.4023L112.083 16.2422L112.499 12.498L113.192 11.3887L112.915 10.2793L115.549 7.64453C117.768 6.9974 119.894 6.25781 121.928 5.42578C121.836 5.70312 121.79 5.98047 121.79 6.25781C121.79 6.6276 122.113 6.9974 122.76 7.36719C123.407 7.64453 123.639 8.15299 123.454 8.89258C123.546 9.07747 123.685 9.26237 123.87 9.44727C123.777 10.0944 123.823 10.418 124.008 10.418L124.563 10.2793ZM105.01 19.1543L104.317 17.4902L102.237 20.4023L102.792 25.2559L104.317 22.3438L104.456 19.8477L105.01 19.1543ZM106.258 30.5254L105.981 29.5547L104.733 31.2188L105.01 34.1309L105.981 32.4668L106.12 30.9414L106.258 30.5254ZM99.8795 83.6367L99.1861 82.1113L97.2447 84.8848L97.6607 89.7383L99.1861 86.9648L99.3248 84.4688L99.8795 83.6367ZM201.62 23.0371C198.2 39.0306 185.257 53.4987 162.792 66.4414C173.054 74.3919 182.715 80.7708 191.775 85.5781C190.942 87.7969 190.342 89.877 189.972 91.8184L188.03 90.8477L187.614 93.0664L186.644 91.541L179.294 90.5703L182.067 93.4824L185.257 94.5918L186.089 95.4238H187.06L186.505 98.8906C186.135 98.7982 185.812 98.752 185.534 98.752C185.257 98.752 184.702 98.8906 183.87 99.168C183.408 99.3529 182.807 99.3066 182.067 99.0293L184.841 104.576C178.277 101.71 171.667 98.7982 165.011 95.8398C157.245 92.4193 150.866 89.2298 145.874 86.2715C145.227 89.1374 144.719 92.6504 144.349 96.8105C143.424 97.2728 142.038 97.9199 140.189 98.752L140.05 98.6133L141.575 96.1172L140.05 89.5996L138.386 93.6211L138.525 96.2559L137.138 94.5918C137.045 94.6842 135.058 97.0879 131.175 101.803L129.65 100.416C128.448 101.248 127.385 101.988 126.46 102.635C129.234 73.0514 132.192 50.0781 135.335 33.7148L132.7 35.1016L133.671 34.2695L129.234 33.7148L124.657 37.043C124.288 35.4714 124.056 34.2233 123.964 33.2988C124.056 33.2988 125.72 32.4668 128.956 30.8027L127.015 29.1387L128.956 28.168H130.066L132.146 26.0879L127.847 25.5332L125.905 26.9199L125.767 24.9785C127.061 23.3145 128.032 21.9277 128.679 20.8184L123.825 21.6504L124.241 19.4316C124.796 19.1543 125.998 18.4609 127.847 17.3516C145.874 5.98047 162.7 0.294922 178.323 0.294922C185.257 0.294922 190.804 1.63542 194.964 4.31641C199.771 7.45964 202.175 11.9434 202.175 17.7676C202.175 19.4316 201.99 21.1882 201.62 23.0371ZM130.759 36.3496C128.355 37.8288 126.553 39.0306 125.351 39.9551C125.258 39.3079 125.166 38.7533 125.073 38.291L126.876 38.1523L130.482 36.3496H130.759ZM176.243 31.7734C176.243 26.8737 172.592 24.4238 165.288 24.4238C164.364 24.4238 163.393 24.4701 162.376 24.5625C158.401 36.2109 155.674 45.4557 154.194 52.2969C168.894 44.8086 176.243 37.9674 176.243 31.7734ZM141.437 19.4316L138.247 19.0156L133.532 22.3438L136.583 22.2051L139.079 20.957H140.05L141.437 19.4316ZM179.155 87.2422L177.63 84.8848L172.915 84.1914L174.579 86.1328L176.798 86.8262L177.214 87.5195L179.155 87.2422ZM137.415 86.6875L136.306 81.9727L135.058 84.8848L135.196 87.2422L134.78 88.0742L135.612 89.5996L137.415 86.6875ZM277.568 32.8828C275.812 41.0182 271.744 49.6159 265.365 58.6758C256.675 70.694 245.905 80.8171 233.054 89.0449C219.927 97.4577 206.568 102.589 192.978 104.438L194.92 99.4453L195.058 99.3066L199.218 99.4453L206.013 93.6211L201.299 94.4531L200.05 95.1465C199.866 93.7598 199.773 90.6165 199.773 85.7168L204.627 84.7461C206.013 69.3997 208.093 53.6836 210.867 37.5977C207.169 39.3542 203.471 41.388 199.773 43.6992C201.252 37.875 203.24 32.8366 205.736 28.584L203.517 25.1172H205.32L211.144 20.125L207.123 20.8184L203.517 22.8984L205.459 16.9355L203.24 14.7168C219.049 6.39648 234.118 2.23633 248.447 2.23633C257.599 2.23633 264.764 4.08529 269.941 7.7832C275.673 11.666 278.539 17.444 278.539 25.1172C278.539 27.5208 278.215 30.1094 277.568 32.8828ZM219.187 20.6797L216.136 21.2344L213.502 22.7598L212.67 22.8984L211.422 24.4238L214.75 24.5625L219.187 20.6797ZM250.804 44.2539C251.082 42.8672 251.22 41.6191 251.22 40.5098C251.22 33.4837 246.413 30.0169 236.799 30.1094C231.991 45.5482 227.97 60.8945 224.734 76.1484C230.928 72.2656 236.336 67.6432 240.959 62.2812C246.321 56.1797 249.603 50.1706 250.804 44.2539ZM219.326 89.0449L217.384 89.3223C216.46 89.9694 215.813 90.293 215.443 90.293L214.611 91.2637H216.552L219.326 89.0449ZM212.67 88.2129L210.035 88.6289L208.232 89.877H207.539L206.291 91.2637H208.925L212.67 88.2129ZM48.3379 126.279C40.6647 149.391 34.6094 171.394 30.1719 192.287C29.8021 193.951 29.2012 196.401 28.3691 199.637C27.9069 200.654 27.306 202.225 26.5664 204.352C26.1966 207.033 25.6882 211.008 25.041 216.277C24.1165 216.647 22.7298 217.202 20.8809 217.941C20.2337 217.017 19.3555 215.538 18.2461 213.504L18.3848 210.869L19.2168 209.621L18.2461 206.986L14.918 211.701L15.334 216.416C14.502 217.248 13.4388 218.542 12.1445 220.299L10.6191 218.635C9.60221 219.189 8.58529 219.883 7.56836 220.715C11.1738 184.568 15.6113 153.921 20.8809 128.775C23.7467 127.758 28.0456 126.141 33.7773 123.922C33.8698 124.754 34.1009 125.91 34.4707 127.389L33.084 129.191L33.7773 136.402L35.8574 132.242L36.2734 128.498L36.9668 127.389L36.6895 126.279L39.3242 123.645C41.543 122.997 43.6693 122.258 45.7031 121.426C45.6107 121.703 45.5645 121.98 45.5645 122.258C45.5645 122.628 45.888 122.997 46.5352 123.367C47.1823 123.645 47.4134 124.153 47.2285 124.893C47.321 125.077 47.4596 125.262 47.6445 125.447C47.5521 126.094 47.5983 126.418 47.7832 126.418L48.3379 126.279ZM28.7852 135.154L28.0918 133.49L26.0117 136.402L26.5664 141.256L28.0918 138.344L28.2305 135.848L28.7852 135.154ZM30.0332 146.525L29.7559 145.555L28.5078 147.219L28.7852 150.131L29.7559 148.467L29.8945 146.941L30.0332 146.525ZM23.6543 199.637L22.9609 198.111L21.0195 200.885L21.4355 205.738L22.9609 202.965L23.0996 200.469L23.6543 199.637ZM128.446 123.09C121.42 150.824 117.306 176.34 116.104 199.637C113.793 201.301 112.036 202.503 110.835 203.242C110.095 201.208 109.54 199.313 109.17 197.557C108.431 198.481 107.229 199.914 105.565 201.855C105.657 203.057 105.796 204.814 105.981 207.125H102.098C102.006 207.217 101.405 208.882 100.295 212.117C88.9244 199.082 80.6041 187.85 75.3345 178.42C74.9647 179.807 74.1327 183.412 72.8384 189.236C72.4686 191.455 71.6828 194.691 70.481 198.943C70.1112 199.775 69.649 201.116 69.0943 202.965C68.6321 205.276 68.0311 209.251 67.2916 214.891C65.5351 215.63 64.1946 216.092 63.2701 216.277L62.438 215.307L63.8248 212.533L64.2408 209.066L64.7955 208.096L64.1021 205.877L61.19 209.76L61.606 214.059L60.2193 211.979C58.925 213.458 57.0298 215.676 54.5337 218.635L52.8697 217.109L49.8189 219.051C53.147 184.29 57.3072 155.123 62.2994 131.549C62.7616 131.364 64.1021 131.271 66.3209 131.271C67.7076 131.271 69.233 130.671 70.897 129.469C73.1158 127.897 74.5487 126.973 75.1959 126.695C75.011 128.544 75.011 131.179 75.1959 134.6C76.0279 133.768 76.9524 132.427 77.9693 130.578C78.9862 128.637 79.8645 127.25 80.6041 126.418C82.1757 125.956 84.302 125.262 86.983 124.338C86.8905 124.985 87.0292 125.54 87.399 126.002C87.8612 126.464 87.9999 127.019 87.815 127.666H88.231L88.647 127.111C88.647 127.666 88.6933 128.128 88.7857 128.498C88.9706 128.868 89.2479 129.007 89.6177 128.914L89.2017 130.439C92.1601 147.542 95.7193 160.809 99.8795 170.238C99.5097 163.027 100.989 149.021 104.317 128.221C105.334 127.666 106.905 126.788 109.032 125.586C109.309 123.922 109.771 122.258 110.419 120.594C112.267 120.039 114.948 119.438 118.461 118.791L116.52 121.426L117.213 128.359L119.294 124.338L119.71 120.732L120.403 119.623L119.848 118.375C121.605 118.098 123.777 117.635 126.366 116.988C125.626 120.316 125.118 122.859 124.84 124.615C125.765 124.245 126.967 123.737 128.446 123.09ZM113.192 132.52L112.499 130.994L110.557 133.629L111.112 138.482L112.499 135.709L112.776 133.213L113.192 132.52ZM64.1021 193.812L63.5474 192.287L61.4673 195.061L62.022 199.775L63.4087 197.002L63.6861 194.645L64.1021 193.812ZM58.1392 206.848L57.4459 205.322L55.3658 208.096L55.9205 212.811L57.4459 210.037L57.7232 207.68L58.1392 206.848ZM213.685 114.908C206.381 136.911 200.465 158.544 195.935 179.807C195.565 181.378 194.918 183.412 193.993 185.908C193.161 188.312 192.653 190.068 192.468 191.178C192.375 191.548 191.867 195.338 190.942 202.549C189.186 203.288 187.845 203.797 186.921 204.074C185.719 202.04 184.748 200.515 184.009 199.498C181.605 202.179 179.664 204.444 178.185 206.293L176.521 204.906L173.47 206.848C173.562 206.293 173.886 203.104 174.441 197.279C166.12 201.439 157.661 206.478 149.064 212.395L148.925 212.949C146.706 214.059 144.719 215.214 142.962 216.416L143.378 215.584L143.794 211.979L144.349 210.869L143.378 208.789L140.466 212.672L141.159 217.664C139.495 218.681 138.201 219.559 137.276 220.299C137.369 219.467 137.6 218.08 137.97 216.139C137.23 216.508 136.121 217.202 134.642 218.219C134.642 217.941 135.058 214.29 135.89 207.264C134.595 209.852 132.608 213.689 129.927 218.773L129.095 218.635C132.978 195.245 135.52 180.361 136.722 173.982C139.865 157.249 143.147 142.55 146.567 129.885C147.122 129.7 147.677 129.607 148.232 129.607C148.694 129.607 149.295 129.746 150.034 130.023C150.774 130.301 151.375 130.439 151.837 130.439C153.131 130.439 154.842 129.654 156.968 128.082L157.661 134.738L159.88 130.855L160.019 127.389L160.851 126.279L160.435 125.447C161.267 125.262 161.96 125.17 162.515 125.17C163.069 125.17 163.67 125.401 164.317 125.863C165.057 126.233 165.704 126.418 166.259 126.418C167.461 126.418 169.079 125.586 171.112 123.922C173.424 121.888 175.088 120.686 176.105 120.316C172.407 131.318 168.709 142.365 165.011 153.459C160.758 166.309 157.476 177.357 155.165 186.602C160.065 183.828 167.368 179.622 177.075 173.982C179.202 155.77 182.299 136.865 186.366 117.266C189.787 116.064 194.086 114.492 199.263 112.551C199.448 114.03 199.725 115.417 200.095 116.711C201.112 115.694 202.637 114.215 204.671 112.273L206.196 111.719L204.255 114.215L205.087 121.01L207.167 117.127L207.444 113.66L208.138 112.551L207.722 111.303C208.461 111.118 209.617 110.748 211.189 110.193C210.726 111.58 210.264 113.429 209.802 115.74C211.189 115.555 212.483 115.278 213.685 114.908ZM196.351 121.842L195.935 120.594L194.132 122.812L194.548 126.834L195.657 124.615L195.935 122.535L196.351 121.842ZM198.985 128.637L198.431 127.389L196.767 129.607L197.183 133.629L198.431 131.271L198.569 129.191L198.985 128.637ZM141.714 203.936L141.298 202.688L139.495 205.045L139.911 208.928L141.159 206.709C141.252 205.6 141.437 204.675 141.714 203.936Z" fill="white"/>
</svg>
