<svg width="129" height="28" viewBox="0 0 129 28" fill="none" xmlns="http://www.w3.org/2000/svg">
<path d="M20.6304 7.37578C20.0508 10.0953 18.3344 12.4804 15.4812 14.5312C16.7072 14.9771 17.3202 15.7684 17.3202 16.9052C17.3202 17.7077 17.0193 18.6439 16.4174 19.7139C15.2137 21.8316 13.3858 23.4477 10.9338 24.5622C8.81613 25.5207 6.52015 25.9889 4.04583 25.9666L3.67803 26.4347L3.27679 26.1003C3.12075 26.2118 2.87555 26.3901 2.54119 26.6353L2.60806 25.8663C1.98391 25.8217 1.32632 25.7102 0.635296 25.5319L0.90279 24.9635C1.23716 24.9412 1.77214 24.7294 2.50775 24.3282L2.17338 24.0272L2.97586 23.7597L2.47431 23.626L2.0062 23.6929L1.90589 23.6594L1.77214 23.6929L1.6384 23.5926L1.50465 23.2916L2.74181 22.7566L2.47431 21.6198L3.0093 21.6867C3.47741 17.5405 3.99011 13.8848 4.54738 10.7194C3.65574 11.2544 2.79753 11.8006 1.97276 12.3578C1.97276 12.0458 1.96162 11.5888 1.93933 10.9869L2.6415 11.0204L4.17958 9.81666L3.14305 9.95041L2.30713 10.4185L2.03964 10.452L1.93933 10.5857L1.90589 9.91697C1.95047 9.91697 2.0062 9.88353 2.07307 9.81666C2.07307 9.79437 2.01734 9.73864 1.90589 9.64948C1.81672 9.56031 1.77214 9.48229 1.77214 9.41542L1.93933 9.31511C1.91703 9.29282 1.90589 9.27053 1.90589 9.24824C1.92818 9.18136 2.13995 9.04762 2.54119 8.847C2.94243 8.64638 3.15419 8.51263 3.17648 8.44576C3.17648 8.40118 3.16534 8.34545 3.14305 8.27857C3.12075 8.18941 2.98701 8.13368 2.74181 8.11139C2.4966 8.0891 2.36286 8.02223 2.34057 7.91077L2.47431 7.81046C2.13995 7.89963 1.89474 7.94421 1.73871 7.94421C1.56038 7.94421 1.53809 7.89963 1.67183 7.81046C1.64954 7.83275 1.60496 7.86619 1.53809 7.91077C1.42663 7.91077 1.47121 7.78817 1.67183 7.54297C1.89474 7.29777 2.01734 7.16402 2.03964 7.14173C2.01734 7.11944 1.97276 7.10829 1.90589 7.10829L2.0062 6.57331C2.07307 6.55101 2.34057 6.38383 2.80868 6.07176C7.13315 3.32995 11.2013 1.95905 15.0131 1.95905C16.6626 1.95905 18.0001 2.28227 19.0255 2.92871C20.1846 3.66432 20.7642 4.73429 20.7642 6.13863C20.7642 6.53987 20.7196 6.95225 20.6304 7.37578ZM14.7456 8.88043C14.7456 7.98879 14.166 7.54297 13.0069 7.54297C12.4942 7.54297 11.87 7.63213 11.1344 7.81046C10.6886 9.2148 10.0756 11.3213 9.29539 14.13C12.9288 12.1238 14.7456 10.3739 14.7456 8.88043ZM5.95172 6.43956L4.91519 6.57331L4.07927 7.04142H3.77834L3.34367 7.5764L4.3802 7.64328L5.95172 6.43956ZM5.81798 8.5795L5.24955 8.64638L4.84831 8.88043L4.64769 8.91387L4.44707 9.18136L4.98206 9.2148L5.81798 8.5795ZM12.0038 19.2792C12.1152 18.7888 11.6917 18.5436 10.7332 18.5436C10.0644 18.5436 9.20622 18.6774 8.15854 18.9449C8.0248 19.5913 7.76845 20.5498 7.3895 21.8204C8.21427 21.6867 9.08362 21.408 9.99756 20.9845C11.2013 20.4495 11.87 19.8811 12.0038 19.2792ZM30.517 4.36649C28.6668 9.93926 27.2067 15.2445 26.1368 20.2823C26.0476 20.6836 25.9027 21.2743 25.7021 22.0545C25.5906 22.2997 25.4457 22.6786 25.2674 23.1913C25.1782 23.8378 25.0556 24.7963 24.8996 26.0669C24.6767 26.156 24.3423 26.2898 23.8965 26.4681C23.7405 26.2452 23.5287 25.8885 23.2612 25.3981L23.2946 24.7628L23.4953 24.4619L23.2612 23.8266L22.4587 24.9635L22.559 26.1003C22.3584 26.3009 22.1021 26.613 21.79 27.0365L21.4222 26.6353C21.177 26.769 20.9318 26.9362 20.6866 27.1368C21.5559 18.421 22.6259 11.0315 23.8965 4.96835C24.5875 4.72314 25.6241 4.33305 27.0061 3.79806C27.0284 3.99868 27.0841 4.27732 27.1733 4.63398L26.8389 5.06866L27.0061 6.80736L27.5077 5.80426L27.608 4.90147L27.7752 4.63398L27.7083 4.36649L28.3436 3.73119C28.8786 3.57515 29.3913 3.39682 29.8817 3.1962C29.8594 3.26308 29.8482 3.32995 29.8482 3.39682C29.8482 3.48599 29.9262 3.57515 30.0823 3.66432C30.2383 3.73119 30.2941 3.85379 30.2495 4.03212C30.2718 4.0767 30.3052 4.12128 30.3498 4.16587C30.3275 4.3219 30.3386 4.39992 30.3832 4.39992L30.517 4.36649ZM25.8024 6.50643L25.6352 6.10519L25.1337 6.80736L25.2674 7.97764L25.6352 7.27547L25.6686 6.67361L25.8024 6.50643ZM26.1033 9.24824L26.0365 9.01418L25.7355 9.41542L25.8024 10.1176L26.0365 9.71635L26.0699 9.34855L26.1033 9.24824ZM24.5652 22.0545L24.3981 21.6867L23.9299 22.3554L24.0303 23.5257L24.3981 22.857L24.4315 22.2551L24.5652 22.0545ZM49.097 7.44266C48.2723 11.299 45.1515 14.7876 39.7348 17.9083C42.2091 19.8254 44.5385 21.3635 46.723 22.5226C46.5224 23.0576 46.3775 23.5591 46.2884 24.0272L45.8203 23.7932L45.7199 24.3282L45.4859 23.9604L43.7137 23.7263L44.3825 24.4285L45.1515 24.696L45.3521 24.8966H45.5862L45.4524 25.7325C45.3633 25.7102 45.2853 25.6991 45.2184 25.6991C45.1515 25.6991 45.0178 25.7325 44.8172 25.7994C44.7057 25.844 44.5608 25.8328 44.3825 25.7659L45.0512 27.1034C43.4685 26.4124 41.8747 25.7102 40.2698 24.9969C38.3973 24.1721 36.8592 23.4031 35.6555 22.6898C35.4995 23.3808 35.3769 24.2279 35.2877 25.231C35.0648 25.3424 34.7304 25.4985 34.2846 25.6991L34.2512 25.6656L34.619 25.0638L34.2512 23.4923L33.8499 24.4619L33.8834 25.0972L33.549 24.696C33.5267 24.7183 33.0474 25.2978 32.1112 26.4347L31.7434 26.1003C31.4536 26.3009 31.1973 26.4793 30.9744 26.6353C31.6431 19.5021 32.3564 13.9628 33.1143 10.0173L32.479 10.3516L32.7131 10.151L31.6431 10.0173L30.5397 10.8198C30.4505 10.4408 30.3948 10.1399 30.3725 9.91697C30.3948 9.91697 30.796 9.71635 31.5762 9.31511L31.1081 8.91387L31.5762 8.67981H31.8437L32.3453 8.17826L31.3087 8.04452L30.8406 8.37888L30.8072 7.91077C31.1193 7.50953 31.3533 7.17516 31.5094 6.90767L30.3391 7.10829L30.4394 6.57331C30.5731 6.50643 30.8629 6.33925 31.3087 6.07176C35.6555 3.32995 39.7125 1.95905 43.4797 1.95905C45.1515 1.95905 46.489 2.28227 47.4921 2.92871C48.6512 3.68661 49.2308 4.76773 49.2308 6.17207C49.2308 6.57331 49.1862 6.99684 49.097 7.44266ZM32.0109 10.6526C31.4313 11.0092 30.9967 11.299 30.7069 11.5219C30.6846 11.3659 30.6623 11.2321 30.64 11.1207L31.0747 11.0873L31.944 10.6526H32.0109ZM42.9781 9.54917C42.9781 8.36774 42.0976 7.77702 40.3366 7.77702C40.1137 7.77702 39.8797 7.78817 39.6345 7.81046C38.676 10.6191 38.0184 12.8483 37.6617 14.4978C41.206 12.6922 42.9781 11.0427 42.9781 9.54917ZM34.5855 6.57331L33.8165 6.473L32.6796 7.27547L33.4153 7.24204L34.0171 6.94111H34.2512L34.5855 6.57331ZM43.6803 22.9238L43.3125 22.3554L42.1757 22.1882L42.5769 22.6563L43.1119 22.8235L43.2122 22.9907L43.6803 22.9238ZM33.6159 22.7901L33.3484 21.6532L33.0474 22.3554L33.0809 22.9238L32.9806 23.1244L33.1812 23.4923L33.6159 22.7901ZM67.4096 9.81666C66.9861 11.7783 66.0053 13.8513 64.4672 16.0359C62.3718 18.9337 59.7749 21.3746 56.6765 23.3585C53.5111 25.387 50.2901 26.6242 47.0133 27.07L47.4814 25.8663L47.5148 25.8328L48.5179 25.8663L50.1563 24.4619L49.0195 24.6625L48.7185 24.8297C48.674 24.4954 48.6517 23.7375 48.6517 22.556L49.8219 22.322C50.1563 18.6216 50.6579 14.8322 51.3266 10.9535C50.435 11.377 49.5433 11.8674 48.6517 12.4247C49.0083 11.0204 49.4876 9.80551 50.0894 8.78012L49.5545 7.94421H49.9891L51.3935 6.74049L50.4238 6.90767L49.5545 7.40922L50.0226 5.97145L49.4876 5.43646C53.2994 3.43026 56.9328 2.42716 60.3879 2.42716C62.5948 2.42716 64.3223 2.87298 65.5706 3.76463C66.9527 4.70085 67.6437 6.09405 67.6437 7.94421C67.6437 8.52378 67.5657 9.14793 67.4096 9.81666ZM53.3328 6.87423L52.5972 7.00798L51.9619 7.37578L51.7613 7.40922L51.4603 7.77702L52.2628 7.81046L53.3328 6.87423ZM60.9564 12.5585C61.0232 12.2241 61.0567 11.9232 61.0567 11.6557C61.0567 9.96155 59.8975 9.12564 57.5793 9.14793C56.4201 12.8705 55.4505 16.5709 54.6703 20.2489C56.1638 19.3127 57.4678 18.1981 58.5824 16.9052C59.8752 15.434 60.6666 13.9851 60.9564 12.5585ZM53.3662 23.3585L52.8981 23.4254C52.6752 23.5814 52.5192 23.6594 52.43 23.6594L52.2294 23.8935H52.6975L53.3662 23.3585ZM51.7613 23.1579L51.126 23.2582L50.6913 23.5591H50.5241L50.2232 23.8935H50.8585L51.7613 23.1579ZM88.888 4.36649C87.0378 9.93926 85.5778 15.2445 84.5078 20.2823C84.4186 20.6836 84.2737 21.2743 84.0731 22.0545C83.9617 22.2997 83.8168 22.6786 83.6384 23.1913C83.5493 23.8378 83.4267 24.7963 83.2706 26.0669C83.0477 26.156 82.7134 26.2898 82.2675 26.4681C82.1115 26.2452 81.8997 25.8885 81.6322 25.3981L81.6657 24.7628L81.8663 24.4619L81.6322 23.8266L80.8298 24.9635L80.9301 26.1003C80.7295 26.3009 80.4731 26.613 80.161 27.0365L79.7932 26.6353C79.548 26.769 79.3028 26.9362 79.0576 27.1368C79.927 18.421 80.997 11.0315 82.2675 4.96835C82.9586 4.72314 83.9951 4.33305 85.3772 3.79806C85.3994 3.99868 85.4552 4.27732 85.5443 4.63398L85.21 5.06866L85.3772 6.80736L85.8787 5.80426L85.979 4.90147L86.1462 4.63398L86.0793 4.36649L86.7146 3.73119C87.2496 3.57515 87.7623 3.39682 88.2527 3.1962C88.2304 3.26308 88.2193 3.32995 88.2193 3.39682C88.2193 3.48599 88.2973 3.57515 88.4533 3.66432C88.6094 3.73119 88.6651 3.85379 88.6205 4.03212C88.6428 4.0767 88.6762 4.12128 88.7208 4.16587C88.6985 4.3219 88.7097 4.39992 88.7543 4.39992L88.888 4.36649ZM84.1734 6.50643L84.0062 6.10519L83.5047 6.80736L83.6384 7.97764L84.0062 7.27547L84.0397 6.67361L84.1734 6.50643ZM84.4744 9.24824L84.4075 9.01418L84.1066 9.41542L84.1734 10.1176L84.4075 9.71635L84.4409 9.34855L84.4744 9.24824ZM82.9363 22.0545L82.7691 21.6867L82.301 22.3554L82.4013 23.5257L82.7691 22.857L82.8025 22.2551L82.9363 22.0545ZM108.204 3.59744C106.51 10.2848 105.518 16.4371 105.228 22.0545C104.671 22.4557 104.247 22.7455 103.957 22.9238C103.779 22.4334 103.645 21.9765 103.556 21.5529C103.378 21.7758 103.088 22.1213 102.687 22.5895C102.709 22.8792 102.742 23.3028 102.787 23.8601H101.851C101.828 23.8823 101.684 24.2836 101.416 25.0638C98.6742 21.9207 96.668 19.2124 95.3974 16.9387C95.3083 17.273 95.1077 18.1424 94.7956 19.5467C94.7064 20.0817 94.5169 20.8619 94.2272 21.8873C94.138 22.0879 94.0265 22.4111 93.8928 22.857C93.7813 23.4142 93.6364 24.3727 93.4581 25.7325C93.0346 25.9108 92.7114 26.0223 92.4885 26.0669L92.2878 25.8328L92.6222 25.1641L92.7225 24.3282L92.8563 24.0941L92.6891 23.5591L91.9869 24.4954L92.0872 25.5319L91.7529 25.0303C91.4408 25.387 90.9838 25.922 90.3819 26.6353L89.9807 26.2675L89.2451 26.7356C90.0476 18.3542 91.0507 11.3213 92.2544 5.63708C92.3659 5.5925 92.6891 5.57021 93.2241 5.57021C93.5584 5.57021 93.9262 5.42531 94.3275 5.13553C94.8625 4.75658 95.208 4.53367 95.364 4.4668C95.3194 4.91262 95.3194 5.54791 95.364 6.37269C95.5646 6.17207 95.7875 5.84884 96.0327 5.40302C96.2779 4.93491 96.4897 4.60054 96.668 4.39992C97.047 4.28847 97.5597 4.12128 98.2061 3.89837C98.1838 4.05441 98.2173 4.18816 98.3064 4.29961C98.4179 4.41107 98.4513 4.54481 98.4067 4.70085H98.5071L98.6074 4.56711C98.6074 4.70085 98.6185 4.81231 98.6408 4.90147C98.6854 4.99064 98.7523 5.02407 98.8414 5.00178L98.7411 5.36959C99.4544 9.49344 100.313 12.6922 101.316 14.9659C101.227 13.2272 101.583 9.8501 102.386 4.8346C102.631 4.70085 103.01 4.48909 103.523 4.1993C103.589 3.79806 103.701 3.39682 103.857 2.99558C104.303 2.86184 104.949 2.71694 105.796 2.56091L105.328 3.1962L105.495 4.86804L105.997 3.89837L106.097 3.02902L106.264 2.76153L106.131 2.4606C106.554 2.39372 107.078 2.28227 107.702 2.12623C107.524 2.92871 107.401 3.54172 107.334 3.96525C107.557 3.87608 107.847 3.75348 108.204 3.59744ZM104.526 5.87114L104.358 5.50333L103.89 6.13863L104.024 7.30891L104.358 6.64018L104.425 6.03832L104.526 5.87114ZM92.6891 20.6501L92.5553 20.2823L92.0538 20.9511L92.1875 22.0879L92.5219 21.4192L92.5888 20.8508L92.6891 20.6501ZM91.2513 23.7932L91.0841 23.4254L90.5826 24.0941L90.7163 25.231L91.0841 24.5622L91.151 23.9938L91.2513 23.7932ZM128.757 1.62468C126.996 6.92996 125.569 12.1461 124.477 17.273C124.387 17.652 124.231 18.1424 124.009 18.7442C123.808 19.3238 123.685 19.7473 123.641 20.0148C123.618 20.104 123.496 21.0179 123.273 22.7566C122.849 22.935 122.526 23.0576 122.303 23.1244C122.013 22.634 121.779 22.2662 121.601 22.021C121.022 22.6675 120.553 23.2136 120.197 23.6594L119.796 23.3251L119.06 23.7932C119.082 23.6594 119.16 22.8904 119.294 21.4861C117.288 22.4892 115.248 23.704 113.175 25.1306L113.142 25.2644C112.607 25.5319 112.127 25.8105 111.704 26.1003L111.804 25.8997L111.904 25.0303L112.038 24.7628L111.804 24.2613L111.102 25.1975L111.269 26.4012C110.868 26.6464 110.556 26.8582 110.333 27.0365C110.355 26.8359 110.411 26.5015 110.5 26.0334C110.322 26.1226 110.054 26.2898 109.698 26.535C109.698 26.4681 109.798 25.5876 109.999 23.8935C109.686 24.5176 109.207 25.4427 108.561 26.6687L108.36 26.6353C109.296 20.9956 109.909 17.4068 110.199 15.8687C110.957 11.834 111.748 8.28972 112.573 5.23584C112.707 5.19126 112.841 5.16897 112.974 5.16897C113.086 5.16897 113.231 5.2024 113.409 5.26928C113.587 5.33615 113.732 5.36959 113.844 5.36959C114.156 5.36959 114.568 5.18011 115.081 4.80116L115.248 6.40612L115.783 5.4699L115.817 4.63398L116.017 4.36649L115.917 4.16587C116.117 4.12128 116.285 4.09899 116.418 4.09899C116.552 4.09899 116.697 4.15472 116.853 4.26618C117.031 4.35534 117.187 4.39992 117.321 4.39992C117.611 4.39992 118.001 4.1993 118.491 3.79806C119.049 3.30766 119.45 3.01787 119.695 2.92871C118.804 5.58135 117.912 8.24514 117.02 10.9201C115.995 14.0185 115.204 16.6823 114.646 18.9114C115.828 18.2427 117.589 17.2285 119.929 15.8687C120.442 11.4773 121.189 6.91882 122.17 2.1931C122.994 1.90332 124.031 1.52437 125.279 1.05626C125.324 1.41292 125.391 1.74728 125.48 2.05936C125.725 1.81415 126.093 1.4575 126.583 0.989384L126.951 0.855637L126.483 1.4575L126.683 3.09589L127.185 2.15967L127.252 1.32375L127.419 1.05626L127.319 0.755328C127.497 0.710745 127.776 0.621581 128.155 0.487834C128.043 0.822201 127.932 1.26802 127.82 1.8253C128.155 1.78072 128.467 1.71384 128.757 1.62468ZM124.577 3.29651L124.477 2.99558L124.042 3.53057L124.142 4.50023L124.41 3.96525L124.477 3.4637L124.577 3.29651ZM125.212 4.93491L125.078 4.63398L124.677 5.16897L124.778 6.13863L125.078 5.57021L125.112 5.06866L125.212 4.93491ZM111.403 23.091L111.303 22.7901L110.868 23.3585L110.968 24.2947L111.269 23.7597C111.291 23.4923 111.336 23.2693 111.403 23.091Z" fill="white"/>
</svg>
